<svg width="27" height="32" viewBox="0 0 27 32" fill="none" xmlns="http://www.w3.org/2000/svg">
<path d="M20.6828 31.5804C23.7696 31.5804 26.2719 29.0874 26.2719 26.0122C26.2719 22.937 23.7696 20.444 20.6828 20.444C17.5961 20.444 15.0938 22.937 15.0938 26.0122C15.0938 29.0874 17.5961 31.5804 20.6828 31.5804Z" fill="url(#paint0_radial)"/>
<path d="M25.4674 1.45848C25.5484 10.4322 20.2701 13.9633 15.7664 18.015C11.4834 21.8782 7.59221 23.7447 7.59221 30.0622C7.55828 30.4327 7.38562 30.7768 7.10856 31.0263C6.83151 31.2757 6.47037 31.412 6.09698 31.4082H1.59329C1.19384 31.4107 0.809535 31.2561 0.523724 30.9781C0.237913 30.7001 0.0736416 30.321 0.066537 29.9231C0.0350112 21.0885 5.70966 17.2343 10.4475 12.7429C14.0955 9.28804 17.8471 6.85617 17.9417 1.47643C17.951 1.08474 18.1126 0.711945 18.3923 0.436582C18.6721 0.16122 19.0482 0.00479013 19.4414 0.000249522H23.9451C24.3409 -0.00696445 24.7235 0.142497 25.0088 0.415858C25.2942 0.689218 25.4591 1.06417 25.4674 1.45848Z" fill="url(#paint1_linear)"/>
<path d="M7.5125 1.49862V10.2929C7.50851 10.6899 7.34653 11.0691 7.06213 11.3473L2.70256 15.7668C2.51266 16.0209 2.24664 16.2082 1.9429 16.3018C1.63917 16.3954 1.31343 16.3904 1.01273 16.2876C0.712022 16.1847 0.451907 15.9893 0.269937 15.7296C0.0879674 15.4698 -0.00644133 15.1592 0.000341503 14.8425V1.49862C-0.000253104 1.30165 0.0382492 1.10651 0.113633 0.924423C0.189018 0.742336 0.299796 0.576895 0.439595 0.437619C0.579395 0.298342 0.745457 0.187977 0.928227 0.112875C1.111 0.0377727 1.30687 -0.000585626 1.50457 6.75795e-06H6.00827C6.20597 -0.000585626 6.40185 0.0377727 6.58462 0.112875C6.76739 0.187977 6.93345 0.298342 7.07325 0.437619C7.21305 0.576895 7.32383 0.742336 7.39921 0.924423C7.47459 1.10651 7.5131 1.30165 7.5125 1.49862Z" fill="url(#paint2_linear)"/>
<defs>
<radialGradient id="paint0_radial" cx="0" cy="0" r="1" gradientUnits="userSpaceOnUse" gradientTransform="translate(14.3777 30.2882) scale(16.6502 16.5879)">
<stop stop-color="#16AAFE"/>
<stop offset="0.48" stop-color="#00DFCE"/>
<stop offset="1" stop-color="#12F7A7"/>
</radialGradient>
<linearGradient id="paint1_linear" x1="12.767" y1="31.2871" x2="12.767" y2="-2.27459" gradientUnits="userSpaceOnUse">
<stop offset="0.05" stop-color="#16AAFE"/>
<stop offset="0.17" stop-color="#0EBCEE"/>
<stop offset="0.38" stop-color="#04D6D7"/>
<stop offset="0.51" stop-color="#00DFCE"/>
<stop offset="1" stop-color="#12F7A7"/>
</linearGradient>
<linearGradient id="paint2_linear" x1="3.75642" y1="27.8634" x2="3.75642" y2="-2.54404" gradientUnits="userSpaceOnUse">
<stop offset="0.05" stop-color="#16AAFE"/>
<stop offset="0.61" stop-color="#00DFCE"/>
<stop offset="1" stop-color="#12F7A7"/>
</linearGradient>
</defs>
</svg>
