<svg width="3109" height="634" viewBox="0 0 3109 634" fill="none" xmlns="http://www.w3.org/2000/svg">
<path d="M849.546 618.75V220.101H920.011V373.871L1090.89 220.235H1174.06L983.541 389.845L1190.84 618.883H1108.53L920.045 408.287V618.883L849.546 618.75Z" fill="white"/>
<path d="M1418.71 618.693V220.044H1483.01L1485.41 272.068C1515.75 231.116 1560.56 210.763 1619.83 211.007C1685.93 211.007 1730.4 234.506 1753.23 281.506C1766.06 307.718 1772.47 348.847 1772.47 404.895V618.76H1702.01V411.432C1702.01 358.074 1694.7 320.59 1680.1 298.981C1665.49 277.371 1640.57 266.51 1605.33 266.399C1558.91 266.399 1526.27 284.841 1507.42 321.724C1495.1 344.668 1488.96 382.352 1489.01 434.776V618.76L1418.71 618.693Z" fill="white"/>
<path d="M2230.05 437.602H1909.24C1910.3 480.8 1923.75 514.059 1949.59 537.381C1975.42 560.703 2011.27 572.386 2057.14 572.43C2106.83 572.43 2150.66 561.914 2188.63 540.882L2210.37 591.672C2163.93 615.683 2112.57 627.833 2056.3 628.122C1988.01 628.122 1934.81 609.892 1896.73 573.431C1858.65 536.97 1839.59 485.835 1839.57 420.027C1839.57 355.553 1857.36 304.741 1892.93 267.591C1928.5 230.441 1976.84 211.866 2037.96 211.866C2097.74 211.866 2144.71 229.485 2178.86 264.723C2213.01 299.961 2230.09 348.306 2230.12 409.756L2230.05 437.602ZM1910.87 383.844H2161.18C2156.29 306.031 2115.73 267.124 2039.5 267.124C2001.54 267.124 1971.3 277.229 1948.75 297.438C1926.21 317.647 1913.58 346.449 1910.87 383.844Z" fill="white"/>
<path d="M2332.62 277.113H2271.16V220.187H2334.25V87.8599H2402.28V220.187H2515.34V277.113H2402.28V471.335C2402.28 508.752 2406.85 533.886 2415.99 546.736C2425.13 559.586 2442.91 566.001 2469.35 565.978C2482.18 565.651 2494.9 563.403 2507.06 559.309L2519.77 616.234C2497.47 621.493 2474.65 624.245 2451.74 624.438C2400.96 624.438 2367.1 609.987 2350.16 581.085C2338.35 560.298 2332.47 521.914 2332.52 465.933L2332.62 277.113Z" fill="white"/>
<path d="M2766.71 618.719V220.07H2837.18V373.841L3008.02 220.204H3091.19L2900.67 389.815L3108 618.852H3025.63L2837.18 408.256V618.852L2766.71 618.719Z" fill="white"/>
<path d="M1254.8 618.71V220.061H1325.27V618.71H1254.8Z" fill="white"/>
<path d="M1289.8 141.236C1315.71 141.236 1336.72 120.229 1336.72 94.3152C1336.72 68.4012 1315.71 47.3936 1289.8 47.3936C1263.88 47.3936 1242.88 68.4012 1242.88 94.3152C1242.88 120.229 1263.88 141.236 1289.8 141.236Z" fill="white"/>
<path d="M2605.12 618.736V220.087H2675.58V618.736H2605.12Z" fill="white"/>
<path d="M2640.14 141.251C2666.06 141.251 2687.07 120.243 2687.07 94.3294C2687.07 68.4154 2666.06 47.4077 2640.14 47.4077C2614.23 47.4077 2593.22 68.4154 2593.22 94.3294C2593.22 120.243 2614.23 141.251 2640.14 141.251Z" fill="white"/>
<path d="M410.557 633.956C472.44 633.956 522.606 584.326 522.606 523.104C522.606 461.883 472.44 412.253 410.557 412.253C348.674 412.253 298.508 461.883 298.508 523.104C298.508 584.326 348.674 633.956 410.557 633.956Z" fill="url(#paint0_radial_2283_22795)"/>
<path d="M510.052 34.312C510.052 209.667 405.247 279.427 315.415 359.699C230.896 435.192 154.103 472.461 151.206 592.391C150.723 611.503 133.819 627.271 114.5 627.271H33.844C15.0082 627.271 0.0361328 611.981 0.0361328 593.346C1.00207 419.425 114.017 343.453 208.196 254.581C280.641 186.732 354.536 138.474 358.882 34.7898C359.848 15.6775 375.786 0.387695 395.105 0.387695H476.244C494.597 0.387695 510.052 15.6775 510.052 34.312Z" fill="url(#paint1_linear_2283_22795)"/>
<path d="M135.278 219.701L51.2412 300.928C32.8883 318.607 1.97827 305.706 1.97827 280.383V33.8342C1.97827 15.1997 16.9503 0.387695 35.7861 0.387695H118.857C137.693 0.387695 152.665 15.1997 152.665 33.8342V178.61C153.148 194.377 146.869 209.189 135.278 219.701Z" fill="url(#paint2_linear_2283_22795)"/>
<defs>
<radialGradient id="paint0_radial_2283_22795" cx="0" cy="0" r="1" gradientUnits="userSpaceOnUse" gradientTransform="translate(283.909 608.512) scale(334.235 330.663)">
<stop offset="0.00108939" stop-color="#16AAFE"/>
<stop offset="0.4765" stop-color="#00DFCE"/>
<stop offset="1" stop-color="#12F7A7"/>
</radialGradient>
<linearGradient id="paint1_linear_2283_22795" x1="254.975" y1="624.118" x2="254.975" y2="-44.9767" gradientUnits="userSpaceOnUse">
<stop offset="0.0503766" stop-color="#16AAFE"/>
<stop offset="0.1731" stop-color="#0EBCEE"/>
<stop offset="0.381" stop-color="#04D6D7"/>
<stop offset="0.5062" stop-color="#00DFCE"/>
<stop offset="1" stop-color="#12F7A7"/>
</linearGradient>
<linearGradient id="paint2_linear_2283_22795" x1="77.6093" y1="453.462" x2="77.6093" y2="7.1286" gradientUnits="userSpaceOnUse">
<stop offset="0.0503766" stop-color="#16AAFE"/>
<stop offset="0.6121" stop-color="#00DFCE"/>
<stop offset="1" stop-color="#12F7A7"/>
</linearGradient>
</defs>
</svg>
